<svg width="45" height="42" viewBox="0 0 45 42" fill="none" xmlns="http://www.w3.org/2000/svg">
<path d="M37.62 27.3917C38.4075 25.4792 38.835 23.4317 38.835 21.1817C38.835 19.5617 38.5875 18.0092 38.16 16.5692C36.6975 16.9067 35.1675 17.0867 33.57 17.0867C30.2984 17.0902 27.074 16.3071 24.1684 14.8035C21.2629 13.2998 18.7615 11.1196 16.875 8.4467C14.857 13.3296 11.05 17.2573 6.2325 19.4267C6.1425 19.9892 6.1425 20.5967 6.1425 21.1817C6.1425 23.3298 6.5656 25.4569 7.38764 27.4414C8.20968 29.426 9.41457 31.2293 10.9335 32.7482C14.0011 35.8158 18.1617 37.5392 22.5 37.5392C24.8625 37.5392 27.135 37.0217 29.1825 36.0992C30.465 38.5517 31.05 39.7667 31.005 39.7667C27.315 41.0042 24.4575 41.6117 22.5 41.6117C17.055 41.6117 11.8575 39.4742 8.0325 35.6267C5.70599 33.3074 3.97658 30.4585 2.9925 27.3242H0V17.0867H2.4525C3.19554 13.4699 4.90386 10.1216 7.39618 7.39728C9.88849 4.67294 13.0718 2.67412 16.6084 1.61291C20.145 0.5517 23.903 0.46769 27.4834 1.36979C31.0639 2.2719 34.3334 4.12646 36.945 6.7367C39.7805 9.56102 41.7146 13.1629 42.5025 17.0867H45V27.3242H44.865L36.855 34.6817L24.93 33.3317V29.5742H35.7975L37.62 27.3917ZM16.3575 20.6642C17.0325 20.6642 17.685 20.9342 18.1575 21.4292C18.6324 21.9079 18.8988 22.5549 18.8988 23.2292C18.8988 23.9035 18.6324 24.5505 18.1575 25.0292C17.685 25.5017 17.0325 25.7717 16.3575 25.7717C14.94 25.7717 13.7925 24.6467 13.7925 23.2292C13.7925 21.8117 14.94 20.6642 16.3575 20.6642ZM28.62 20.6642C30.0375 20.6642 31.1625 21.8117 31.1625 23.2292C31.1625 24.6467 30.0375 25.7717 28.62 25.7717C27.2025 25.7717 26.055 24.6467 26.055 23.2292C26.055 22.5489 26.3252 21.8965 26.8063 21.4155C27.2873 20.9344 27.9397 20.6642 28.62 20.6642Z" fill="black"/>
</svg>
