<svg width="45" height="46" viewBox="0 0 45 46" fill="none" xmlns="http://www.w3.org/2000/svg">
<path d="M32.1187 39.5625L39.9375 31.8L37.575 29.4375L32.1187 34.7812L29.925 32.5875L27.5625 35.0063L32.1187 39.5625ZM6.75 14.25H33.75V9.75H6.75V14.25ZM33.75 45.75C30.6375 45.75 27.9848 44.6528 25.7918 42.4583C23.5988 40.2638 22.5015 37.611 22.5 34.5C22.5 31.3875 23.5973 28.7348 25.7918 26.5418C27.9863 24.3488 30.639 23.2515 33.75 23.25C36.8625 23.25 39.516 24.3473 41.7105 26.5418C43.905 28.7363 45.0015 31.389 45 34.5C45 37.6125 43.9028 40.266 41.7083 42.4605C39.5138 44.655 36.861 45.7515 33.75 45.75ZM0 43.5V5.25C0 4.0125 0.441 2.9535 1.323 2.073C2.205 1.1925 3.264 0.7515 4.5 0.75H36C37.2375 0.75 38.2973 1.191 39.1793 2.073C40.0613 2.955 40.5015 4.014 40.5 5.25V20.2688C39.45 19.7438 38.3528 19.359 37.2083 19.1145C36.0638 18.87 34.911 18.7485 33.75 18.75H6.75V23.25H22.725C22.0875 23.8875 21.4972 24.5813 20.9542 25.3313C20.4112 26.0813 19.9328 26.8875 19.5188 27.75H6.75V32.25H18.1687C18.0937 32.625 18.0472 32.991 18.0292 33.348C18.0112 33.705 18.0015 34.089 18 34.5C18 36.075 18.216 37.5848 18.648 39.0293C19.08 40.4738 19.7265 41.8515 20.5875 43.1625L20.25 43.5L16.875 40.125L13.5 43.5L10.125 40.125L6.75 43.5L3.375 40.125L0 43.5Z" fill="black"/>
</svg>
