<svg width="45" height="46" viewBox="0 0 45 46" fill="none" xmlns="http://www.w3.org/2000/svg">
<path fill-rule="evenodd" clip-rule="evenodd" d="M36.8924 1.97256C36.8237 1.69568 36.6827 1.44202 36.4838 1.23753C36.2849 1.03304 36.0352 0.885055 35.7603 0.808721C35.4855 0.732387 35.1953 0.730441 34.9194 0.803084C34.6435 0.875727 34.3919 1.02035 34.1903 1.22216L27.749 7.6634C27.5526 7.86026 27.4105 8.10463 27.3366 8.37272C27.2626 8.64081 27.2594 8.92348 27.3271 9.1932L28.4866 13.8438C28.4713 13.8586 28.4563 13.8736 28.4415 13.8889L20.741 21.5894C20.3143 22.0473 20.082 22.6529 20.0931 23.2787C20.1041 23.9044 20.3576 24.5015 20.8002 24.944C21.2427 25.3866 21.8398 25.6401 22.4655 25.6511C23.0913 25.6622 23.6969 25.4299 24.1548 25.0032L31.8618 17.3059C31.877 17.29 31.892 17.2739 31.9069 17.2576L36.5542 18.4203C36.8239 18.488 37.1066 18.4848 37.3747 18.4109C37.6428 18.3369 37.8872 18.1948 38.084 17.9984L44.5252 11.5571C44.7279 11.3556 44.8732 11.1037 44.9464 10.8274C45.0195 10.5512 45.0178 10.2604 44.9414 9.98496C44.865 9.70955 44.7167 9.45944 44.5117 9.2603C44.3067 9.06116 44.0524 8.92017 43.7748 8.85181L38.2708 7.47982L36.8924 1.97256ZM23.4688 3.1964C23.5131 3.83527 23.3018 4.46557 22.8815 4.94872C22.4611 5.43187 21.8661 5.72832 21.2273 5.7729C17.8624 6.00609 14.6351 7.20038 11.929 9.21385C9.22293 11.2273 7.15175 13.9753 5.96157 17.1314C4.7714 20.2874 4.51227 23.7188 5.21498 27.0177C5.91769 30.3167 7.55269 33.3446 9.92572 35.7416C12.2987 38.1387 15.31 39.8041 18.6018 40.54C21.8935 41.2758 25.3273 41.0513 28.4951 39.8929C31.663 38.7346 34.4317 36.6912 36.4723 34.0055C38.5129 31.3198 39.7397 28.1048 40.0067 24.7424C40.0575 24.1034 40.3601 23.5109 40.8478 23.095C41.3355 22.6792 41.9685 22.4741 42.6074 22.525C43.2463 22.5758 43.8388 22.8783 44.2547 23.366C44.6705 23.8538 44.8756 24.4867 44.8248 25.1256C44.4839 29.4097 42.9205 33.506 40.3201 36.9277C37.7198 40.3494 34.1918 42.9527 30.1554 44.4284C26.1191 45.904 21.7439 46.19 17.5498 45.2523C13.3557 44.3145 9.51891 42.1926 6.4953 39.1384C3.47169 36.0843 1.38834 32.2264 0.492788 28.0231C-0.402767 23.8198 -0.0728909 19.4477 1.44322 15.4264C2.95934 11.405 5.59796 7.90339 9.04561 5.33753C12.4933 2.77166 16.605 1.24941 20.8923 0.951626C21.5312 0.907379 22.1615 1.11865 22.6446 1.53899C23.1278 1.95933 23.4242 2.55755 23.4688 3.1964ZM21.3046 13.8212C21.4203 14.1166 21.4767 14.432 21.4705 14.7492C21.4644 15.0664 21.3958 15.3793 21.2687 15.67C21.1416 15.9607 20.9584 16.2235 20.7297 16.4434C20.501 16.6633 20.2313 16.836 19.9358 16.9517C18.8796 17.366 17.9433 18.037 17.2115 18.904C16.4796 19.771 15.9754 20.8067 15.7444 21.9175C15.5134 23.0284 15.5628 24.1792 15.8882 25.2661C16.2136 26.353 16.8048 27.3417 17.6082 28.1428C18.4116 28.9439 19.402 29.5322 20.4899 29.8544C21.5777 30.1767 22.7287 30.2227 23.8389 29.9885C24.949 29.7542 25.9832 29.247 26.8481 28.5126C27.713 27.7783 28.3813 26.84 28.7925 25.7826C28.9076 25.487 29.0797 25.2169 29.2991 24.9878C29.5185 24.7587 29.7809 24.575 30.0713 24.4473C30.3617 24.3196 30.6744 24.2504 30.9916 24.2435C31.3087 24.2367 31.6241 24.2924 31.9197 24.4074C32.2154 24.5224 32.4855 24.6946 32.7146 24.914C32.9437 25.1334 33.1273 25.3958 33.255 25.6862C33.3827 25.9766 33.452 26.2893 33.4588 26.6064C33.4657 26.9236 33.41 27.239 33.2949 27.5346C32.5925 29.3404 31.4512 30.9426 29.974 32.1964C28.4968 33.4503 26.7305 34.3162 24.8346 34.7159C22.9388 35.1156 20.9732 35.0366 19.1155 34.4858C17.2579 33.9351 15.5668 32.9301 14.1952 31.5616C12.8235 30.1932 11.8145 28.5045 11.2594 26.6481C10.7043 24.7918 10.6207 22.8264 11.0159 20.9296C11.4112 19.0328 12.273 17.2644 13.5234 15.7843C14.7737 14.3042 16.3733 13.1591 18.1773 12.4525C18.7736 12.2197 19.4378 12.2332 20.0242 12.4898C20.6105 12.7464 21.071 13.2253 21.3046 13.8212Z" fill="black"/>
</svg>
