<svg width="30" height="35" viewBox="0 0 30 35" fill="none" xmlns="http://www.w3.org/2000/svg">
<g id="fa6-brands:square-x-twitter" clip-path="url(#clip0_147_263)">
<path id="Vector" d="M4.45897 2.625C2.11107 2.625 0.202148 4.53086 0.202148 6.875V28.125C0.202148 30.4691 2.11107 32.375 4.45897 32.375H25.7431C28.091 32.375 29.9999 30.4691 29.9999 28.125V6.875C29.9999 4.53086 28.091 2.625 25.7431 2.625H4.45897ZM24.2199 8.20312L17.3159 16.0789L25.4371 26.7969H19.0785L14.1033 20.2957L8.40318 26.7969H5.24382L12.6267 18.3699L4.83809 8.20312H11.3564L15.8593 14.1465L21.0606 8.20312H24.2199ZM21.7057 24.9109L10.4052 9.98945H8.5229L19.9498 24.9109H21.6991H21.7057Z" fill="white"/>
</g>
<defs>
<clipPath id="clip0_147_263">
<rect width="29.7978" height="34" fill="white" transform="translate(0.202148 0.5)"/>
</clipPath>
</defs>
</svg>
