<svg width="80" height="77" viewBox="0 0 80 77" fill="none" xmlns="http://www.w3.org/2000/svg">
<path d="M57.0778 38.0113C67.5689 38.0113 76.0835 29.4968 76.0835 19.0057C76.0835 8.51454 67.5689 0 57.0778 0C46.5867 0 38.0721 8.51454 38.0721 19.0057C38.0721 29.4968 46.5867 38.0113 57.0778 38.0113ZM77.794 59.2977C76.3115 57.7772 74.449 57.017 72.2823 57.017H45.6744L37.7681 54.2422L39.0224 50.6691L45.6744 53.2159H56.3176C57.648 53.2159 58.7123 52.6837 59.5866 51.8094C60.4608 50.9352 60.8789 49.8709 60.8789 48.6925C60.8789 46.6399 59.8906 45.2335 57.9141 44.4352L30.2798 34.2102H22.8676V68.4204L49.4755 76.0227L79.9986 64.6193C80.0367 62.6047 79.2764 60.8181 77.794 59.2977ZM15.2653 34.2102H0V76.0227H15.2653V34.2102Z" fill="#3E4F59"/>
</svg>
