<svg width="80" height="80" viewBox="0 0 80 80" fill="none" xmlns="http://www.w3.org/2000/svg">
<path fill-rule="evenodd" clip-rule="evenodd" d="M65.5236 2.17136C65.4016 1.67961 65.1512 1.22909 64.7979 0.865892C64.4447 0.502698 64.0013 0.239869 63.5131 0.104293C63.0249 -0.0312826 62.5094 -0.0347376 62.0195 0.0942817C61.5295 0.223301 61.0826 0.480163 60.7245 0.838589L49.2844 12.2787C48.9355 12.6283 48.6831 13.0624 48.5518 13.5385C48.4205 14.0147 48.4147 14.5167 48.535 14.9958L50.5943 23.2555C50.5672 23.2819 50.5405 23.3085 50.5142 23.3356L36.8375 37.0123C36.0797 37.8255 35.6672 38.9012 35.6868 40.0126C35.7064 41.124 36.1566 42.1844 36.9426 42.9704C37.7286 43.7564 38.7891 44.2067 39.9005 44.2263C41.0119 44.2459 42.0875 43.8333 42.9008 43.0756L56.5889 29.4046C56.616 29.3763 56.6427 29.3477 56.669 29.3188L64.923 31.3837C65.4021 31.5041 65.9041 31.4983 66.3803 31.367C66.8564 31.2357 67.2904 30.9833 67.6401 30.6344L79.0802 19.1943C79.4401 18.8363 79.6983 18.389 79.8282 17.8983C79.9581 17.4076 79.955 16.8911 79.8193 16.402C79.6836 15.9128 79.4202 15.4686 79.0561 15.1149C78.692 14.7612 78.2403 14.5108 77.7474 14.3894L67.9718 11.9527L65.5236 2.17136ZM41.6824 4.34499C41.761 5.47968 41.3858 6.59913 40.6392 7.45724C39.8927 8.31535 38.8359 8.84187 37.7012 8.92104C31.7249 9.33521 25.9931 11.4564 21.1869 15.0324C16.3806 18.6085 12.702 23.4892 10.5882 29.0945C8.47436 34.6999 8.01413 40.7942 9.2622 46.6535C10.5103 52.5127 13.4142 57.8905 17.6288 62.1478C21.8435 66.4051 27.1918 69.363 33.0381 70.67C38.8845 71.977 44.9832 71.5781 50.6095 69.5208C56.2359 67.4635 61.1533 63.8342 64.7776 59.0643C68.4019 54.2943 70.5806 48.5841 71.0549 42.6122C71.1452 41.4775 71.6826 40.425 72.5488 39.6865C73.415 38.9479 74.5391 38.5837 75.6739 38.674C76.8087 38.7642 77.8611 39.3016 78.5996 40.1678C79.3382 41.034 79.7024 42.1582 79.6122 43.2929C79.0068 50.9018 76.23 58.1771 71.6116 64.2543C66.9931 70.3315 60.7273 74.9552 53.5583 77.5761C46.3894 80.197 38.6188 80.7048 31.1698 79.0394C23.7207 77.3739 16.9063 73.6051 11.5361 68.1808C6.16598 62.7564 2.4658 55.9045 0.875229 48.4391C-0.715344 40.9737 -0.12946 33.2086 2.56327 26.0663C5.25601 18.9241 9.9424 12.705 16.0657 8.1478C22.189 3.59063 29.4917 0.886993 37.1064 0.358103C38.241 0.279517 39.3605 0.654748 40.2186 1.4013C41.0767 2.14786 41.6032 3.21034 41.6824 4.34499ZM37.8385 23.2155C38.0441 23.7402 38.1442 24.3002 38.1333 24.8636C38.1224 25.427 38.0006 25.9827 37.7748 26.499C37.549 27.0154 37.2238 27.4821 36.8176 27.8727C36.4114 28.2633 35.9323 28.57 35.4075 28.7754C33.5316 29.5112 31.8686 30.703 30.5688 32.2429C29.2691 33.7828 28.3736 35.6223 27.9633 37.5952C27.5529 39.568 27.6407 41.6121 28.2187 43.5425C28.7966 45.4729 29.8465 47.2289 31.2735 48.6517C32.7004 50.0745 34.4595 51.1193 36.3916 51.6916C38.3237 52.264 40.368 52.3458 42.3396 51.9297C44.3113 51.5136 46.1482 50.6128 47.6843 49.3086C49.2204 48.0043 50.4073 46.3379 51.1377 44.4598C51.342 43.9347 51.6477 43.4551 52.0374 43.0481C52.4271 42.6412 52.8932 42.3151 53.4089 42.0883C53.9247 41.8615 54.48 41.7385 55.0433 41.7263C55.6066 41.7141 56.1668 41.813 56.6919 42.0173C57.2169 42.2217 57.6966 42.5274 58.1035 42.9171C58.5104 43.3068 58.8366 43.7728 59.0634 44.2886C59.2902 44.8043 59.4132 45.3597 59.4254 45.923C59.4375 46.4863 59.3386 47.0465 59.1343 47.5715C57.8868 50.7787 55.8596 53.6243 53.2361 55.8512C50.6125 58.0781 47.4754 59.6161 44.1082 60.326C40.741 61.036 37.2499 60.8955 33.9506 59.9174C30.6513 58.9393 27.6478 57.1543 25.2117 54.7238C22.7755 52.2933 20.9835 49.294 19.9976 45.9971C19.0117 42.7001 18.8631 39.2094 19.5651 35.8405C20.2672 32.4716 21.7977 29.3309 24.0185 26.7021C26.2392 24.0734 29.0801 22.0395 32.2843 20.7845C33.3433 20.3711 34.523 20.395 35.5644 20.8508C36.6058 21.3066 37.4237 22.1571 37.8385 23.2155Z" fill="#3E4F59"/>
</svg>
