<svg width="80" height="80" viewBox="0 0 80 80" fill="none" xmlns="http://www.w3.org/2000/svg">
<path d="M40 0C17.9093 0 0 17.9093 0 40C0 62.0907 17.9093 80 40 80C62.0907 80 80 62.0907 80 40C80 17.9093 62.0907 0 40 0ZM22.9493 73.1947C19.8367 71.5894 16.9647 69.5553 14.4173 67.152H65.584C63.0364 69.555 60.1644 71.589 57.052 73.1947H22.9493ZM9.22667 61.1053C7.91667 59.2002 6.7869 57.1773 5.852 55.0627H74.1493C73.2139 57.177 72.0842 59.1999 70.7747 61.1053H9.22667ZM3.77467 49.02C3.28261 47.0357 2.95528 45.0142 2.796 42.976H77.2053C77.0461 45.0142 76.7187 47.0357 76.2267 49.02H3.77467ZM8.72133 19.6547H9.22533L9.66133 18.284C9.74533 18.1653 9.828 18.0453 9.91333 17.9293L10.4627 19.6547H12.4653L10.8453 20.9373L11.4653 22.924L9.84267 21.744L8.22267 22.9547L8.84267 20.9333L8.216 20.4387C8.38 20.176 8.552 19.916 8.72133 19.6547ZM11.4667 38.6587L9.844 37.4773L8.224 38.688L8.844 36.6667L7.22267 35.3867H9.22533L9.844 33.4427L10.464 35.3867H12.4667L10.8467 36.6693L11.4667 38.6587ZM36.0667 9.84533L36.6867 11.788H38.6893L37.068 13.072L37.688 15.0587L36.0667 13.8773L34.4453 15.088L35.0653 13.068L33.444 11.7867H35.4467L36.0667 9.84533ZM35.4467 27.5213L36.0667 25.5787L36.6867 27.5213H38.6893L37.068 28.8053L37.688 30.792L36.0667 29.6107L34.4453 30.8227L35.0653 28.8013L33.444 27.52L35.4467 27.5213ZM31.8227 20.9373L32.4427 22.924L30.8227 21.744L29.2 22.956L29.82 20.9347L28.2 19.6547H30.2027L30.8227 17.7107L31.4427 19.6547H33.444L31.8227 20.9373ZM32.4427 38.6587L30.8227 37.4773L29.2 38.6893L29.82 36.668L28.2 35.388H30.2027L30.8227 33.444L31.4427 35.388H33.444L31.8227 36.6707L32.4427 38.6587ZM26.58 13.072L27.2 15.0587L25.5787 13.8773L23.9573 15.088L24.5773 13.068L22.956 11.7867H24.9587L25.5787 9.844L26.1987 11.7867H28.2013L26.58 13.072ZM24.9587 27.5213L25.5787 25.5787L26.1987 27.5213H28.2013L26.58 28.8053L27.2 30.792L25.5787 29.6107L23.9573 30.8227L24.5773 28.8013L22.956 27.52L24.9587 27.5213ZM21.3347 20.9373L21.9547 22.924L20.3333 21.744L18.712 22.9547L19.332 20.9333L17.7107 19.6533H19.7133L20.3333 17.7093L20.9533 19.6533H22.956L21.3347 20.9373ZM19.7133 35.388L20.3333 33.444L20.9533 35.388H22.956L21.3347 36.6707L21.9547 38.6587L20.3333 37.4773L18.712 38.688L19.332 36.6667L17.7107 35.3867L19.7133 35.388ZM16.0893 28.8053L16.7093 30.792L15.088 29.6107L13.468 30.8227L14.0867 28.8013L12.4653 27.52H14.468L15.088 25.5773L15.708 27.52H17.7107L16.0893 28.8053ZM40 30.8867H76.2027C76.696 32.844 77.0267 34.864 77.196 36.9293H40V30.8867ZM40 24.8427V18.8H70.7053C72.0232 20.7047 73.1615 22.7276 74.1053 24.8427H40ZM40 12.7533V6.70933H56.864C60.0077 8.30794 62.9097 10.3427 65.484 12.7533H40ZM31.3667 3.68533L31.4427 3.92267H33.444L31.8227 5.20533L32.4427 7.192L30.8227 6.01067L29.2 7.22267L29.82 5.20133L28.792 4.388C29.6417 4.1235 30.5004 3.88913 31.3667 3.68533ZM15.708 11.788H17.7107L16.0893 13.072L16.7093 15.0587L15.088 13.8773L13.468 15.088L14.0467 13.2C14.5773 12.6853 15.1227 12.1893 15.6827 11.708L15.708 11.788ZM5.22 27.5213H7.22267L5.60133 28.8053L6.22133 30.792L4.6 29.6107L4.02667 30.0387C4.32 28.984 4.652 27.948 5.03333 26.932L5.22 27.5213Z" fill="#3E4F59"/>
</svg>
